<svg xmlns="http://www.w3.org/2000/svg" viewBox="0 0 48 48" width="480px" height="480px" baseProfile="basic">
  <linearGradient id="HrHI9j6vu6ob0MW4wrK8da" x1="24" x2="24" y1="8.261" y2="46.038" gradientUnits="userSpaceOnUse">
    <stop offset="0" stop-color="#78e837" />
    <stop offset=".238" stop-color="#5bdd46" />
    <stop offset="1" stop-color="#00bc73" />
  </linearGradient>
  <path fill="url(#HrHI9j6vu6ob0MW4wrK8da)" d="M24,44.889C13.584,44.889,5.111,36.415,5.111,26S13.584,7.111,24,7.111 S42.889,15.585,42.889,26S34.416,44.889,24,44.889z M24,10.889c-8.333,0-15.111,6.779-15.111,15.111S15.667,41.111,24,41.111 S39.111,34.332,39.111,26S32.333,10.889,24,10.889z" />
  <path fill="#04aa5f" d="M17.437,12.409c1.988-0.964,4.209-1.521,6.563-1.521s4.575,0.557,6.563,1.521 C31.095,11.388,31.4,10.23,31.4,9c0-0.13-0.013-0.257-0.019-0.385C29.112,7.648,26.618,7.111,24,7.111s-5.112,0.537-7.38,1.504 C16.613,8.743,16.6,8.87,16.6,9C16.6,10.23,16.905,11.388,17.437,12.409z" opacity=".4" />
  <path fill="#04aa5f" d="M17.078,12.583c2.076-1.076,4.427-1.694,6.922-1.694s4.846,0.618,6.922,1.694 C31.48,11.509,31.8,10.292,31.8,9c0-0.063-0.008-0.124-0.009-0.187C29.412,7.73,26.779,7.111,24,7.111s-5.412,0.619-7.791,1.701 C16.208,8.876,16.2,8.937,16.2,9C16.2,10.292,16.52,11.509,17.078,12.583z" opacity=".3" />
  <path fill="#04aa5f" d="M24,10.889c2.638,0,5.117,0.683,7.278,1.876c0.584-1.126,0.92-2.4,0.922-3.754 c-2.484-1.204-5.259-1.899-8.2-1.899s-5.716,0.695-8.2,1.899c0.002,1.354,0.337,2.629,0.922,3.754 C18.883,11.572,21.362,10.889,24,10.889z" opacity=".2" />
  <path fill="#04aa5f" d="M24,10.889c2.781,0,5.38,0.768,7.62,2.084c0.593-1.134,0.938-2.415,0.97-3.774 C30.01,7.874,27.095,7.111,24,7.111s-6.01,0.762-8.59,2.087c0.031,1.359,0.376,2.64,0.97,3.774 C18.62,11.657,21.219,10.889,24,10.889z" opacity=".1" />
  <path fill="#04aa5f" d="M24,10.889c2.924,0,5.647,0.849,7.963,2.292c0.602-1.142,0.959-2.43,1.017-3.794 c-2.673-1.45-5.732-2.276-8.98-2.276s-6.308,0.825-8.98,2.276c0.058,1.365,0.415,2.652,1.017,3.794 C18.353,11.737,21.076,10.889,24,10.889z" opacity=".05" />
  <path fill="#04aa5f" d="M31.75,38.948c0.709,1.12,1.709,2.035,2.896,2.641c4.13-2.829,7.068-7.257,7.95-12.382 c-1.013-0.805-2.24-1.345-3.583-1.53C38.481,32.468,35.697,36.577,31.75,38.948z" opacity=".4" />
  <path fill="#04aa5f" d="M31.409,39.156c0.706,1.117,1.683,2.046,2.845,2.685 c4.453-2.893,7.602-7.606,8.409-13.08c-1.038-0.777-2.272-1.301-3.617-1.482C38.616,32.377,35.649,36.758,31.409,39.156z" opacity=".3" />
  <path fill="#04aa5f" d="M31.061,39.351c0.704,1.119,1.668,2.054,2.81,2.723 c4.776-2.944,8.146-7.94,8.862-13.76c-1.063-0.755-2.312-1.259-3.665-1.436C38.754,32.286,35.598,36.941,31.061,39.351z" opacity=".2" />
  <path fill="#04aa5f" d="M30.7,39.525c0.702,1.129,1.656,2.082,2.787,2.783c5.105-2.982,8.7-8.274,9.308-14.444 c-1.085-0.731-2.348-1.215-3.707-1.387C38.907,32.197,35.541,37.116,30.7,39.525z" opacity=".1" />
  <path fill="#04aa5f" d="M30.339,39.699c0.701,1.139,1.644,2.112,2.764,2.842 c5.438-3.005,9.229-8.612,9.714-15.13c-1.099-0.7-2.357-1.168-3.71-1.335C39.077,32.11,35.488,37.306,30.339,39.699z" opacity=".05" />
  <g>
    <path fill="#04aa5f" d="M13.354,41.589c1.187-0.606,2.186-1.521,2.896-2.641 c-3.947-2.371-6.731-6.481-7.263-11.271c-1.343,0.184-2.57,0.725-3.583,1.53C6.287,34.332,9.224,38.76,13.354,41.589z" opacity=".4" />
    <path fill="#04aa5f" d="M13.746,41.84c1.162-0.638,2.139-1.567,2.845-2.685 c-4.24-2.397-7.207-6.779-7.637-11.877c-1.345,0.181-2.58,0.705-3.617,1.482C6.143,34.234,9.292,38.947,13.746,41.84z" opacity=".3" />
    <path fill="#04aa5f" d="M14.13,42.074c1.142-0.669,2.106-1.604,2.81-2.723 c-4.538-2.41-7.693-7.064-8.006-12.473c-1.353,0.177-2.602,0.682-3.665,1.436C5.983,34.133,9.354,39.13,14.13,42.074z" opacity=".2" />
    <path fill="#04aa5f" d="M14.513,42.307c1.13-0.701,2.085-1.653,2.787-2.783 c-4.841-2.408-8.208-7.327-8.388-13.048c-1.359,0.172-2.622,0.656-3.707,1.387C5.813,34.033,9.408,39.326,14.513,42.307z" opacity=".1" />
    <path fill="#04aa5f" d="M14.897,42.541c1.12-0.73,2.063-1.703,2.764-2.842 c-5.149-2.393-8.739-7.589-8.769-13.623c-1.352,0.167-2.611,0.635-3.71,1.335C5.668,33.928,9.46,39.536,14.897,42.541z" opacity=".05" />
  </g>
  <g>
    <path fill="#04aa5f" d="M18.177,12.884c1.782-0.794,3.749-1.245,5.823-1.245c2.074,0,4.044,0.446,5.824,1.244 C30.566,11.771,31,10.437,31,9c0-0.476-0.049-0.941-0.139-1.391C28.725,6.806,26.415,6.361,24,6.361 c-2.417,0-4.723,0.46-6.863,1.262C17.048,8.069,17,8.529,17,9C17,10.437,17.435,11.772,18.177,12.884z" opacity=".4" />
    <path fill="#04aa5f" d="M38.204,28.01c-0.596,4.228-3.032,7.866-6.479,10.077 c0.826,1.675,2.296,2.971,4.092,3.561c3.65-2.763,6.309-6.758,7.338-11.372C41.919,28.928,40.164,28.067,38.204,28.01z" opacity=".4" />
    <path fill="#04aa5f" d="M12.183,41.648c1.796-0.59,3.267-1.886,4.092-3.561 c-3.447-2.211-5.883-5.849-6.479-10.077c-1.961,0.057-3.715,0.917-4.952,2.266C5.874,34.891,8.533,38.885,12.183,41.648z" opacity=".4" />
    <path fill="#04aa5f" d="M18.636,13.494c1.647-0.709,3.46-1.105,5.364-1.105c1.904,0,3.713,0.4,5.358,1.112 C30.382,12.283,31,10.715,31,9c0-0.799-0.141-1.564-0.387-2.28C28.538,6.005,26.315,5.611,24,5.611 c-2.319,0-4.54,0.408-6.618,1.124C17.138,7.447,17,8.207,17,9C17,10.712,17.616,12.278,18.636,13.494z" opacity=".3" />
    <path fill="#04aa5f" d="M11.247,41.883c2.471-0.445,4.485-2.184,5.325-4.492 c-3.179-2.08-5.427-5.451-6.015-9.363C10.373,28.014,10.188,28,10,28c-2.379,0-4.477,1.189-5.742,3.003 C5.362,35.353,7.85,39.15,11.247,41.883z" opacity=".3" />
    <path fill="#04aa5f" d="M38,28c-0.188,0-0.373,0.014-0.557,0.028c-0.589,3.912-2.837,7.283-6.015,9.363 c0.84,2.308,2.855,4.047,5.325,4.492c3.396-2.732,5.885-6.53,6.989-10.88C42.477,29.189,40.379,28,38,28z" opacity=".3" />
    <g>
      <path fill="#04aa5f" d="M19.193,14.08C20.68,13.478,22.3,13.139,24,13.139c1.699,0,3.315,0.345,4.799,0.948 C30.151,12.811,31,11.006,31,9c0-1.152-0.284-2.237-0.777-3.195C28.255,5.196,26.166,4.861,24,4.861 c-2.164,0-4.252,0.33-6.22,0.937C17.285,6.758,17,7.845,17,9C17,11.002,17.845,12.804,19.193,14.08z" opacity=".2" />
      <path fill="#04aa5f" d="M16.797,36.649c-2.851-1.935-4.874-4.987-5.466-8.519C10.899,28.047,10.455,28,10,28 c-2.759,0-5.139,1.601-6.279,3.921c1.159,3.962,3.446,7.438,6.493,10.069C13.415,41.892,16.071,39.65,16.797,36.649z" opacity=".2" />
      <path fill="#04aa5f" d="M38,28c-0.455,0-0.899,0.047-1.33,0.13c-0.592,3.532-2.615,6.584-5.466,8.519 c0.726,3.002,3.382,5.244,6.583,5.341c3.046-2.63,5.334-6.107,6.493-10.069C43.139,29.601,40.759,28,38,28z" opacity=".2" />
    </g>
    <g>
      <path fill="#04aa5f" d="M19.858,14.634c1.295-0.473,2.686-0.745,4.142-0.745c1.456,0,2.846,0.273,4.139,0.748 C29.871,13.362,31,11.315,31,9c0-1.556-0.514-2.989-1.374-4.152C27.83,4.37,25.945,4.111,24,4.111 c-1.945,0-3.83,0.258-5.626,0.737C17.514,6.01,17,7.443,17,9C17,11.314,18.128,13.359,19.858,14.634z" opacity=".1" />
      <path fill="#04aa5f" d="M16.947,35.826c-2.455-1.767-4.227-4.422-4.829-7.498C11.45,28.116,10.739,28,10,28 c-3.187,0-5.872,2.132-6.718,5.047c1.165,3.415,3.149,6.451,5.72,8.874C9.329,41.968,9.66,42,10,42 C13.586,42,16.538,39.302,16.947,35.826z" opacity=".1" />
      <path fill="#04aa5f" d="M38,28c-0.739,0-1.45,0.116-2.118,0.328c-0.602,3.075-2.374,5.73-4.829,7.498 C31.462,39.302,34.414,42,38,42c0.34,0,0.671-0.032,0.998-0.079c2.571-2.424,4.556-5.46,5.72-8.874C43.872,30.132,41.187,28,38,28 z" opacity=".1" />
    </g>
  </g>
  <linearGradient id="HrHI9j6vu6ob0MW4wrK8db" x1="-10.422" x2="31.578" y1="22" y2="22" gradientUnits="userSpaceOnUse">
    <stop offset="0" stop-color="#01fff7" stop-opacity=".3" />
    <stop offset="1" stop-color="#01fff7" stop-opacity=".4" />
  </linearGradient>
  <path fill="url(#HrHI9j6vu6ob0MW4wrK8db)" d="M38,42c-3.866,0-7-3.134-7-7s3.134-7,7-7 s7,3.134,7,7S41.866,42,38,42z M17,35c0-3.866-3.134-7-7-7s-7,3.134-7,7s3.134,7,7,7S17,38.866,17,35z M31,9c0-3.866-3.134-7-7-7 s-7,3.134-7,7s3.134,7,7,7S31,12.866,31,9z" />
  <linearGradient id="HrHI9j6vu6ob0MW4wrK8dc" x1="24" x2="24" y1="46.163" y2="4.163" gradientUnits="userSpaceOnUse">
    <stop offset="0" stop-color="#278eff" stop-opacity=".2" />
    <stop offset="1" stop-color="#fff" stop-opacity=".2" />
  </linearGradient>
  <path fill="url(#HrHI9j6vu6ob0MW4wrK8dc)" d="M24,2.5c3.584,0,6.5,2.916,6.5,6.5 s-2.916,6.5-6.5,6.5s-6.5-2.916-6.5-6.5S20.416,2.5,24,2.5 M38,28.5c3.584,0,6.5,2.916,6.5,6.5s-2.916,6.5-6.5,6.5 s-6.5-2.916-6.5-6.5S34.416,28.5,38,28.5 M10,28.5c3.584,0,6.5,2.916,6.5,6.5s-2.916,6.5-6.5,6.5S3.5,38.584,3.5,35 S6.416,28.5,10,28.5 M24,2c-3.866,0-7,3.134-7,7s3.134,7,7,7s7-3.134,7-7S27.866,2,24,2L24,2z M38,28c-3.866,0-7,3.134-7,7 s3.134,7,7,7s7-3.134,7-7S41.866,28,38,28L38,28z M10,28c-3.866,0-7,3.134-7,7s3.134,7,7,7s7-3.134,7-7S13.866,28,10,28L10,28z" />
</svg>